<?xml version="1.0" encoding="utf-8" standalone="no"?>
<!DOCTYPE svg PUBLIC "-//W3C//DTD SVG 1.1//EN"
  "http://www.w3.org/Graphics/SVG/1.1/DTD/svg11.dtd">
<svg xmlns:xlink="http://www.w3.org/1999/xlink" width="246.24pt" height="246.24pt" viewBox="0 0 246.24 246.24" xmlns="http://www.w3.org/2000/svg" version="1.1">
 <metadata>
  <rdf:RDF xmlns:dc="http://purl.org/dc/elements/1.1/" xmlns:cc="http://creativecommons.org/ns#" xmlns:rdf="http://www.w3.org/1999/02/22-rdf-syntax-ns#">
   <cc:Work>
    <dc:type rdf:resource="http://purl.org/dc/dcmitype/StillImage"/>
    <dc:date>2026-04-20T16:14:00.448957</dc:date>
    <dc:format>image/svg+xml</dc:format>
    <dc:creator>
     <cc:Agent>
      <dc:title>Matplotlib v3.10.8, https://matplotlib.org/</dc:title>
     </cc:Agent>
    </dc:creator>
   </cc:Work>
  </rdf:RDF>
 </metadata>
 <defs>
  <style type="text/css">*{stroke-linejoin: round; stroke-linecap: butt}</style>
 </defs>
 <g id="figure_1">
  <g id="patch_1">
   <path d="M 7.2 239.04
L 239.04 239.04
L 239.04 7.2
L 7.2 7.2
z
" style="fill: #ffffff"/>
  </g>
  <g id="axes_1">
   <g id="line2d_1">
    <path d="M 107.964884 116.204312
L 107.85555 115.819316
L 107.73968 115.44869
L 107.617595 115.093478
L 107.489632 114.754683
L 107.356143 114.433263
L 107.217498 114.130129
L 107.074081 113.846145
L 106.926289 113.582122
L 106.774534 113.338817
L 106.619237 113.116932
L 106.460831 112.917109
L 106.299759 112.739932
L 106.136472 112.585921
L 105.971427 112.455532
L 105.805089 112.349157
L 105.637924 112.267122
L 105.470405 112.209682
L 105.303005 112.177026
L 105.136198 112.169274
L 104.970458 112.186472
L 104.806256 112.228599
L 104.64406 112.295561
L 104.484334 112.387194
L 104.327535 112.503263
L 104.174112 112.643461
L 104.024506 112.807414
L 103.879149 112.994677
L 103.738461 113.204738
L 103.602847 113.437017
L 103.472701 113.69087
L 103.348401 113.965589
L 103.230308 114.260403
L 103.118767 114.574485
L 103.014103 114.906945
L 102.916623 115.256844
L 102.826612 115.623186
L 102.744334 116.004927
L 102.670031 116.400979
L 102.603922 116.810207
L 102.546202 117.231439
L 102.497042 117.663465
L 102.456588 118.105043
L 102.424959 118.5549
L 102.40225 119.011741
L 102.38853 119.474247
L 102.383839 119.941083
L 102.388193 120.4109
L 102.40158 120.88234
L 102.423962 121.35404
L 102.455274 121.824637
L 102.495426 122.29277
L 102.544301 122.757086
L 102.601754 123.216243
L 102.66762 123.668917
L 102.741704 124.113801
L 102.823791 124.549613
L 102.91364 124.975099
L 103.010988 125.389036
L 103.115552 125.790234
" clip-path="url(#p19147dd07d)" style="fill: none; stroke: #000000; stroke-width: 1.2; stroke-linecap: square"/>
   </g>
   <g id="line2d_2">
    <path d="M 126.252973 119.987027
L 94.16055 121.511663
" clip-path="url(#p19147dd07d)" style="fill: none; stroke: #8c8c8c; stroke-width: 3; stroke-linecap: round"/>
   </g>
   <g id="Line3DCollection_1">
    <path d="M 126.252973 56.938285
L 126.252973 119.987027
" clip-path="url(#p19147dd07d)" style="fill: none; stroke: #008000; stroke-opacity: 0.4; stroke-width: 1.5"/>
    <path d="M 126.252973 56.938285
L 127.491362 61.700937
" clip-path="url(#p19147dd07d)" style="fill: none; stroke: #008000; stroke-opacity: 0.4; stroke-width: 1.5"/>
    <path d="M 126.252973 56.938285
L 125.015467 61.860059
" clip-path="url(#p19147dd07d)" style="fill: none; stroke: #008000; stroke-opacity: 0.4; stroke-width: 1.5"/>
   </g>
   <g id="text_1">
    <!-- + -->
    <g transform="translate(98.122833 131.241275) scale(0.08 -0.08)">
     <defs>
      <path id="DejaVuSans-Bold-2b" d="M 3053 4013
L 3053 2375
L 4684 2375
L 4684 1638
L 3053 1638
L 3053 0
L 2309 0
L 2309 1638
L 678 1638
L 678 2375
L 2309 2375
L 2309 4013
L 3053 4013
z
" transform="scale(0.015625)"/>
     </defs>
     <use xlink:href="#DejaVuSans-Bold-2b"/>
    </g>
   </g>
   <g id="text_2">
    <!-- − -->
    <g transform="translate(106.205505 115.263845) scale(0.08 -0.08)">
     <defs>
      <path id="DejaVuSans-Bold-2212" d="M 678 2375
L 4684 2375
L 4684 1638
L 678 1638
L 678 2375
z
" transform="scale(0.015625)"/>
     </defs>
     <use xlink:href="#DejaVuSans-Bold-2212"/>
    </g>
   </g>
   <g id="text_3">
    <!-- ver -->
    <g style="fill: #008000" transform="translate(118.970707 49.717134) scale(0.09 -0.09)">
     <defs>
      <path id="DejaVuSans-76" d="M 191 3500
L 800 3500
L 1894 563
L 2988 3500
L 3597 3500
L 2284 0
L 1503 0
L 191 3500
z
" transform="scale(0.015625)"/>
      <path id="DejaVuSans-65" d="M 3597 1894
L 3597 1613
L 953 1613
Q 991 1019 1311 708
Q 1631 397 2203 397
Q 2534 397 2845 478
Q 3156 559 3463 722
L 3463 178
Q 3153 47 2828 -22
Q 2503 -91 2169 -91
Q 1331 -91 842 396
Q 353 884 353 1716
Q 353 2575 817 3079
Q 1281 3584 2069 3584
Q 2775 3584 3186 3129
Q 3597 2675 3597 1894
z
M 3022 2063
Q 3016 2534 2758 2815
Q 2500 3097 2075 3097
Q 1594 3097 1305 2825
Q 1016 2553 972 2059
L 3022 2063
z
" transform="scale(0.015625)"/>
      <path id="DejaVuSans-72" d="M 2631 2963
Q 2534 3019 2420 3045
Q 2306 3072 2169 3072
Q 1681 3072 1420 2755
Q 1159 2438 1159 1844
L 1159 0
L 581 0
L 581 3500
L 1159 3500
L 1159 2956
Q 1341 3275 1631 3429
Q 1922 3584 2338 3584
Q 2397 3584 2469 3576
Q 2541 3569 2628 3553
L 2631 2963
z
" transform="scale(0.015625)"/>
     </defs>
     <use xlink:href="#DejaVuSans-76"/>
     <use xlink:href="#DejaVuSans-65" transform="translate(59.179688 0)"/>
     <use xlink:href="#DejaVuSans-72" transform="translate(120.703125 0)"/>
    </g>
   </g>
   <g id="text_4">
    <!-- lon -->
    <g style="fill: #0000ff" transform="translate(93.607082 110.738123) scale(0.09 -0.09)">
     <defs>
      <path id="DejaVuSans-6c" d="M 603 4863
L 1178 4863
L 1178 0
L 603 0
L 603 4863
z
" transform="scale(0.015625)"/>
      <path id="DejaVuSans-6f" d="M 1959 3097
Q 1497 3097 1228 2736
Q 959 2375 959 1747
Q 959 1119 1226 758
Q 1494 397 1959 397
Q 2419 397 2687 759
Q 2956 1122 2956 1747
Q 2956 2369 2687 2733
Q 2419 3097 1959 3097
z
M 1959 3584
Q 2709 3584 3137 3096
Q 3566 2609 3566 1747
Q 3566 888 3137 398
Q 2709 -91 1959 -91
Q 1206 -91 779 398
Q 353 888 353 1747
Q 353 2609 779 3096
Q 1206 3584 1959 3584
z
" transform="scale(0.015625)"/>
      <path id="DejaVuSans-6e" d="M 3513 2113
L 3513 0
L 2938 0
L 2938 2094
Q 2938 2591 2744 2837
Q 2550 3084 2163 3084
Q 1697 3084 1428 2787
Q 1159 2491 1159 1978
L 1159 0
L 581 0
L 581 3500
L 1159 3500
L 1159 2956
Q 1366 3272 1645 3428
Q 1925 3584 2291 3584
Q 2894 3584 3203 3211
Q 3513 2838 3513 2113
z
" transform="scale(0.015625)"/>
     </defs>
     <use xlink:href="#DejaVuSans-6c"/>
     <use xlink:href="#DejaVuSans-6f" transform="translate(27.783203 0)"/>
     <use xlink:href="#DejaVuSans-6e" transform="translate(88.964844 0)"/>
    </g>
   </g>
   <g id="text_5">
    <!-- lat -->
    <g style="fill: #ff0000" transform="translate(54.655603 123.114238) scale(0.09 -0.09)">
     <defs>
      <path id="DejaVuSans-61" d="M 2194 1759
Q 1497 1759 1228 1600
Q 959 1441 959 1056
Q 959 750 1161 570
Q 1363 391 1709 391
Q 2188 391 2477 730
Q 2766 1069 2766 1631
L 2766 1759
L 2194 1759
z
M 3341 1997
L 3341 0
L 2766 0
L 2766 531
Q 2569 213 2275 61
Q 1981 -91 1556 -91
Q 1019 -91 701 211
Q 384 513 384 1019
Q 384 1609 779 1909
Q 1175 2209 1959 2209
L 2766 2209
L 2766 2266
Q 2766 2663 2505 2880
Q 2244 3097 1772 3097
Q 1472 3097 1187 3025
Q 903 2953 641 2809
L 641 3341
Q 956 3463 1253 3523
Q 1550 3584 1831 3584
Q 2591 3584 2966 3190
Q 3341 2797 3341 1997
z
" transform="scale(0.015625)"/>
      <path id="DejaVuSans-74" d="M 1172 4494
L 1172 3500
L 2356 3500
L 2356 3053
L 1172 3053
L 1172 1153
Q 1172 725 1289 603
Q 1406 481 1766 481
L 2356 481
L 2356 0
L 1766 0
Q 1100 0 847 248
Q 594 497 594 1153
L 594 3053
L 172 3053
L 172 3500
L 594 3500
L 594 4494
L 1172 4494
z
" transform="scale(0.015625)"/>
     </defs>
     <use xlink:href="#DejaVuSans-6c"/>
     <use xlink:href="#DejaVuSans-61" transform="translate(27.783203 0)"/>
     <use xlink:href="#DejaVuSans-74" transform="translate(89.0625 0)"/>
    </g>
   </g>
   <g id="Line3DCollection_2">
    <path d="M 67.121136 122.796242
L 126.252973 119.987027
" clip-path="url(#p19147dd07d)" style="fill: none; stroke: #ff0000; stroke-opacity: 0.4; stroke-width: 1.5"/>
    <path d="M 67.121136 122.796242
L 71.611183 123.876593
" clip-path="url(#p19147dd07d)" style="fill: none; stroke: #ff0000; stroke-opacity: 0.4; stroke-width: 1.5"/>
    <path d="M 67.121136 122.796242
L 71.626031 121.288913
" clip-path="url(#p19147dd07d)" style="fill: none; stroke: #ff0000; stroke-opacity: 0.4; stroke-width: 1.5"/>
   </g>
   <g id="Line3DCollection_3">
    <path d="M 103.263844 111.742717
L 126.252973 119.987027
" clip-path="url(#p19147dd07d)" style="fill: none; stroke: #0000ff; stroke-opacity: 0.4; stroke-width: 1.5"/>
    <path d="M 103.263844 111.742717
L 105.11885 113.782676
" clip-path="url(#p19147dd07d)" style="fill: none; stroke: #0000ff; stroke-opacity: 0.4; stroke-width: 1.5"/>
    <path d="M 103.263844 111.742717
L 105.124953 111.03582
" clip-path="url(#p19147dd07d)" style="fill: none; stroke: #0000ff; stroke-opacity: 0.4; stroke-width: 1.5"/>
   </g>
  </g>
  <g id="text_6">
   <!-- delta -->
   <g transform="translate(105.781875 22.366125) scale(0.12 -0.12)">
    <defs>
     <path id="DejaVuSans-Bold-64" d="M 2919 2988
L 2919 4863
L 4044 4863
L 4044 0
L 2919 0
L 2919 506
Q 2688 197 2409 53
Q 2131 -91 1766 -91
Q 1119 -91 703 423
Q 288 938 288 1747
Q 288 2556 703 3070
Q 1119 3584 1766 3584
Q 2128 3584 2408 3439
Q 2688 3294 2919 2988
z
M 2181 722
Q 2541 722 2730 984
Q 2919 1247 2919 1747
Q 2919 2247 2730 2509
Q 2541 2772 2181 2772
Q 1825 2772 1636 2509
Q 1447 2247 1447 1747
Q 1447 1247 1636 984
Q 1825 722 2181 722
z
" transform="scale(0.015625)"/>
     <path id="DejaVuSans-Bold-65" d="M 4031 1759
L 4031 1441
L 1416 1441
Q 1456 1047 1700 850
Q 1944 653 2381 653
Q 2734 653 3104 758
Q 3475 863 3866 1075
L 3866 213
Q 3469 63 3072 -14
Q 2675 -91 2278 -91
Q 1328 -91 801 392
Q 275 875 275 1747
Q 275 2603 792 3093
Q 1309 3584 2216 3584
Q 3041 3584 3536 3087
Q 4031 2591 4031 1759
z
M 2881 2131
Q 2881 2450 2695 2645
Q 2509 2841 2209 2841
Q 1884 2841 1681 2658
Q 1478 2475 1428 2131
L 2881 2131
z
" transform="scale(0.015625)"/>
     <path id="DejaVuSans-Bold-6c" d="M 538 4863
L 1656 4863
L 1656 0
L 538 0
L 538 4863
z
" transform="scale(0.015625)"/>
     <path id="DejaVuSans-Bold-74" d="M 1759 4494
L 1759 3500
L 2913 3500
L 2913 2700
L 1759 2700
L 1759 1216
Q 1759 972 1856 886
Q 1953 800 2241 800
L 2816 800
L 2816 0
L 1856 0
Q 1194 0 917 276
Q 641 553 641 1216
L 641 2700
L 84 2700
L 84 3500
L 641 3500
L 641 4494
L 1759 4494
z
" transform="scale(0.015625)"/>
     <path id="DejaVuSans-Bold-61" d="M 2106 1575
Q 1756 1575 1579 1456
Q 1403 1338 1403 1106
Q 1403 894 1545 773
Q 1688 653 1941 653
Q 2256 653 2472 879
Q 2688 1106 2688 1447
L 2688 1575
L 2106 1575
z
M 3816 1997
L 3816 0
L 2688 0
L 2688 519
Q 2463 200 2181 54
Q 1900 -91 1497 -91
Q 953 -91 614 226
Q 275 544 275 1050
Q 275 1666 698 1953
Q 1122 2241 2028 2241
L 2688 2241
L 2688 2328
Q 2688 2594 2478 2717
Q 2269 2841 1825 2841
Q 1466 2841 1156 2769
Q 847 2697 581 2553
L 581 3406
Q 941 3494 1303 3539
Q 1666 3584 2028 3584
Q 2975 3584 3395 3211
Q 3816 2838 3816 1997
z
" transform="scale(0.015625)"/>
    </defs>
    <use xlink:href="#DejaVuSans-Bold-64"/>
    <use xlink:href="#DejaVuSans-Bold-65" transform="translate(71.582031 0)"/>
    <use xlink:href="#DejaVuSans-Bold-6c" transform="translate(139.404297 0)"/>
    <use xlink:href="#DejaVuSans-Bold-74" transform="translate(173.681641 0)"/>
    <use xlink:href="#DejaVuSans-Bold-61" transform="translate(221.484375 0)"/>
   </g>
  </g>
  <g id="text_7">
   <!-- -lateral  (-z) -->
   <g style="fill: #666666" transform="translate(93.809844 32.942437) scale(0.1 -0.1)">
    <defs>
     <path id="DejaVuSans-2d" d="M 313 2009
L 1997 2009
L 1997 1497
L 313 1497
L 313 2009
z
" transform="scale(0.015625)"/>
     <path id="DejaVuSans-20" transform="scale(0.015625)"/>
     <path id="DejaVuSans-28" d="M 1984 4856
Q 1566 4138 1362 3434
Q 1159 2731 1159 2009
Q 1159 1288 1364 580
Q 1569 -128 1984 -844
L 1484 -844
Q 1016 -109 783 600
Q 550 1309 550 2009
Q 550 2706 781 3412
Q 1013 4119 1484 4856
L 1984 4856
z
" transform="scale(0.015625)"/>
     <path id="DejaVuSans-7a" d="M 353 3500
L 3084 3500
L 3084 2975
L 922 459
L 3084 459
L 3084 0
L 275 0
L 275 525
L 2438 3041
L 353 3041
L 353 3500
z
" transform="scale(0.015625)"/>
     <path id="DejaVuSans-29" d="M 513 4856
L 1013 4856
Q 1481 4119 1714 3412
Q 1947 2706 1947 2009
Q 1947 1309 1714 600
Q 1481 -109 1013 -844
L 513 -844
Q 928 -128 1133 580
Q 1338 1288 1338 2009
Q 1338 2731 1133 3434
Q 928 4138 513 4856
z
" transform="scale(0.015625)"/>
    </defs>
    <use xlink:href="#DejaVuSans-2d"/>
    <use xlink:href="#DejaVuSans-6c" transform="translate(36.083984 0)"/>
    <use xlink:href="#DejaVuSans-61" transform="translate(63.867188 0)"/>
    <use xlink:href="#DejaVuSans-74" transform="translate(125.146484 0)"/>
    <use xlink:href="#DejaVuSans-65" transform="translate(164.355469 0)"/>
    <use xlink:href="#DejaVuSans-72" transform="translate(225.878906 0)"/>
    <use xlink:href="#DejaVuSans-61" transform="translate(266.992188 0)"/>
    <use xlink:href="#DejaVuSans-6c" transform="translate(328.271484 0)"/>
    <use xlink:href="#DejaVuSans-20" transform="translate(356.054688 0)"/>
    <use xlink:href="#DejaVuSans-20" transform="translate(387.841797 0)"/>
    <use xlink:href="#DejaVuSans-28" transform="translate(419.628906 0)"/>
    <use xlink:href="#DejaVuSans-2d" transform="translate(458.642578 0)"/>
    <use xlink:href="#DejaVuSans-7a" transform="translate(494.726562 0)"/>
    <use xlink:href="#DejaVuSans-29" transform="translate(547.216797 0)"/>
   </g>
  </g>
 </g>
 <defs>
  <clipPath id="p19147dd07d">
   <rect x="7.2" y="7.2" width="231.84" height="231.84"/>
  </clipPath>
 </defs>
</svg>
